solid 
    facet normal 0.000006 0.000042 -0.001276
        outer loop
        vertex 0.763032 0.993450 1.001890
        vertex 0.619366 0.986356 1.000933
        vertex 0.605622 0.994556 1.001131
        endloop
    endfacet
    facet normal -0.011795 -0.169574 2.199030
        outer loop
        vertex 0.763032 0.993450 1.001890
        vertex 11.458031 14.888381 2.130736
        vertex 0.605622 0.994556 1.001131
        endloop
    endfacet
    facet normal 0.004840 0.000121 -0.219903
        outer loop
        vertex 0.763032 0.993450 1.001890
        vertex 0.974105 1.022546 1.006552
        vertex 0.949035 -0.022742 1.005423
        endloop
    endfacet
    facet normal 1.105452 -0.471324 16.038971
        outer loop
        vertex -3.131369 -5.434081 1.032953
        vertex 0.067949 0.965812 1.000515
        vertex -6.254053 -6.667429 1.211934
        endloop
    endfacet
    facet normal 5.949548 -0.347920 101.404347
        outer loop
        vertex -3.131369 -5.434081 1.032953
        vertex -6.254053 -6.667429 1.211934
        vertex -55.511961 -58.595991 3.923803
        endloop
    endfacet
    facet normal 60.026276 -45.533276 -31.114695
        outer loop
        vertex -3.131369 -5.434081 1.032953
        vertex 0.981492 0.003548 1.010027
        vertex 32.438884 34.028265 11.905626
        endloop
    endfacet
    facet normal 0.000003 0.000051 -0.001888
        outer loop
        vertex 0.619366 0.986356 1.000933
        vertex 0.406610 0.975897 1.000256
        vertex 0.605622 0.994556 1.001131
        endloop
    endfacet
    facet normal -0.000730 0.000732 0.218140
        outer loop
        vertex 0.619366 0.986356 1.000933
        vertex 0.406610 0.975897 1.000256
        vertex 0.949035 -0.022742 1.005423
        endloop
    endfacet
    facet normal 0.014096 -0.125054 1.398411
        outer loop
        vertex 0.067949 0.965812 1.000515
        vertex 11.458031 14.888381 2.130736
        vertex 0.036041 1.049584 1.008328
        endloop
    endfacet
    facet normal -0.016144 0.310456 -3.661649
        outer loop
        vertex 0.067949 0.965812 1.000515
        vertex 11.458031 14.888381 2.130736
        vertex 0.348279 0.986994 1.001075
        endloop
    endfacet
endsolid 
